<svg width="603" height="405" viewBox="0 0 603 405" fill="none" xmlns="http://www.w3.org/2000/svg">
<path d="M552.251 353.142C531.827 388.516 484.424 404.616 423.108 401.064C361.955 397.522 287.779 374.428 215.166 332.504C142.552 290.581 85.4641 237.89 51.82 186.701C18.0863 135.376 8.3275 86.273 28.7507 50.899C49.174 15.5249 96.5777 -0.575218 157.894 2.97633C219.047 6.51844 293.222 29.6131 365.836 71.5365C438.449 113.46 495.537 166.15 529.181 217.339C562.915 268.665 572.674 317.768 552.251 353.142Z" stroke="#505050" stroke-width="5"/>
<path d="M561.5 226L566.398 252.424L585.893 233.926L574.324 258.183L600.969 254.676L577.352 267.5L600.969 280.324L574.324 276.817L585.893 301.074L566.398 282.576L561.5 309L556.602 282.576L537.107 301.074L548.676 276.817L522.031 280.324L545.648 267.5L522.031 254.676L548.676 258.183L537.107 233.926L556.602 252.424L561.5 226Z" fill="#505050"/>
<circle cx="31.1575" cy="135.035" r="31.1575" fill="#505050"/>
<circle cx="51.6494" cy="86.6591" r="10.6591" fill="#505050"/>
</svg>
