<svg width="719" height="529" viewBox="0 0 719 529" fill="none" xmlns="http://www.w3.org/2000/svg">
<path fill-rule="evenodd" clip-rule="evenodd" d="M533.097 522.58C612.981 527.207 674.013 506.182 700.188 460.845C726.363 415.509 714.056 352.141 670.106 285.273C626.336 218.677 551.985 150.023 457.317 95.3662C362.65 40.7097 266.018 10.6468 186.459 6.03862C106.574 1.41154 45.5426 22.4372 19.3677 67.7735C-6.80725 113.11 5.49994 176.478 49.4494 243.346C93.2196 309.942 167.571 378.596 262.238 433.253C356.906 487.909 453.538 517.972 533.097 522.58ZM259.738 437.583C450.133 547.507 649.268 559.042 704.518 463.345C759.769 367.649 650.212 200.961 459.817 91.036C269.423 -18.8885 70.2878 -30.4228 15.0375 65.2735C-40.2127 160.97 69.3436 327.658 259.738 437.583Z" fill="#DEB0B2"/>
<path d="M670.999 250L675.012 271.649L690.984 256.494L681.505 276.367L703.335 273.494L683.986 284L703.335 294.507L681.505 291.634L690.984 311.507L675.012 296.351L670.999 318L666.986 296.351L651.014 311.507L660.492 291.634L638.663 294.507L658.012 284L638.663 273.494L660.492 276.367L651.014 256.494L666.986 271.649L670.999 250Z" fill="#DEB0B2"/>
<path d="M52.9989 222C52.9989 232.494 44.4923 241 33.9989 241C23.5055 241 14.9989 232.494 14.9989 222C14.9989 211.507 23.5055 203 33.9989 203C44.4923 203 52.9989 211.507 52.9989 222Z" fill="#DEB0B2"/>
<path d="M52.9989 192.5C52.9989 196.09 50.0887 199 46.4989 199C42.909 199 39.9989 196.09 39.9989 192.5C39.9989 188.91 42.909 186 46.4989 186C50.0887 186 52.9989 188.91 52.9989 192.5Z" fill="#DEB0B2"/>
</svg>
