<svg width="35" height="36" viewBox="0 0 35 36" fill="none" xmlns="http://www.w3.org/2000/svg">
<path d="M24.9715 17.8116C29.5614 17.8116 33.2865 13.8957 33.2865 9.07084C33.2865 4.24594 29.5614 0.330078 24.9715 0.330078C20.3817 0.330078 16.6566 4.24594 16.6566 9.07084C16.6566 13.8957 20.3817 17.8116 24.9715 17.8116ZM34.0349 27.6013C33.3863 26.902 32.5714 26.5524 31.6235 26.5524H19.9826L16.5235 25.2762L17.0723 23.633L19.9826 24.8042H24.6389C25.221 24.8042 25.6866 24.5595 26.0691 24.1574C26.4516 23.7553 26.6345 23.2658 26.6345 22.7239C26.6345 21.7799 26.2022 21.1331 25.3374 20.766L13.2474 16.0635H10.0046V31.7968L21.6455 35.2931L34.9994 30.0487C35.016 29.1222 34.6834 28.3005 34.0349 27.6013ZM6.67859 16.0635H0V35.2931H6.67859V16.0635Z" fill="#F5E5E6"/>
</svg>
