<svg width="35" height="26" viewBox="0 0 35 26" fill="none" xmlns="http://www.w3.org/2000/svg">
<path d="M34.6889 12.9593C34.5401 12.7049 34.3406 12.4819 34.1022 12.3033C33.8638 12.1248 33.5912 11.9942 33.3004 11.9192C32.2452 11.6551 31.1548 11.5488 30.0667 11.6042C30.6501 8.78758 30.2125 6.55982 29.775 5.23877C29.5965 4.69619 29.2169 4.2376 28.71 3.95225C28.2032 3.6669 27.6053 3.57518 27.0328 3.69495C25.5486 4.01652 24.1373 4.59936 22.8686 5.41472C21.9394 3.56815 20.5865 1.95396 18.9144 0.696695C18.5092 0.401036 18.0163 0.241211 17.5098 0.241211C17.0032 0.241211 16.5104 0.401036 16.1052 0.696695C14.4303 1.95316 13.0749 3.56742 12.1436 5.41472C10.8749 4.59936 9.46362 4.01652 7.9794 3.69495C7.40703 3.57457 6.80909 3.66605 6.30233 3.95151C5.79556 4.23697 5.41635 4.69593 5.23873 5.23877C4.80115 6.55982 4.36358 8.78616 4.93826 11.6042C3.85018 11.5488 2.75978 11.6551 1.70459 11.9192C1.41373 11.9942 1.14113 12.1248 0.902721 12.3033C0.66431 12.4819 0.46486 12.7049 0.316018 12.9593C0.160444 13.2197 0.0596897 13.5076 0.0196235 13.8063C-0.0204426 14.105 0.000980558 14.4084 0.0826452 14.6989C0.577104 16.484 2.09549 19.8767 6.69439 22.55C11.2933 25.2233 15.3336 25.2148 17.5098 25.2148C19.686 25.2148 23.7335 25.2148 28.3033 22.55C32.9022 19.8767 34.4205 16.484 34.915 14.6989C34.9978 14.4089 35.0204 14.1057 34.9816 13.807C34.9428 13.5084 34.8433 13.2202 34.6889 12.9593ZM7.89043 20.6018C4.00623 18.3428 2.74455 15.573 2.33323 14.1044C3.40638 13.8466 4.5202 13.7903 5.61504 13.9384C5.98056 14.8909 6.42697 15.8121 6.94964 16.6926C8.23298 18.845 9.91429 20.7481 11.9088 22.306C10.4984 21.9115 9.14743 21.3385 7.89043 20.6018ZM17.5025 22.7175C16.1416 21.7327 12.835 18.7118 12.835 12.6102C12.835 6.58394 16.0993 3.53886 17.5025 2.51154C18.9056 3.5417 22.1699 6.58678 22.1699 12.6131C22.1699 18.7118 18.8633 21.7327 17.5025 22.7175ZM32.6717 14.1072C32.2677 15.5603 31.0089 18.3371 27.116 20.6018C25.8589 21.338 24.5079 21.9105 23.0976 22.3045C25.0921 20.7467 26.7734 18.8436 28.0568 16.6912C28.5794 15.8107 29.0258 14.8895 29.3914 13.937C30.4859 13.7902 31.5992 13.8476 32.6717 14.1058V14.1072Z" fill="#8080C0"/>
</svg>
